<?xml version="1.0" encoding="UTF-8"?>
<svg xmlns="http://www.w3.org/2000/svg" width="136.788" height="32.32" viewBox="0 0 136.788 32.32">
  <g id="Group_900" data-name="Group 900" transform="translate(364 -1462.4)">
    <g id="Group_891" data-name="Group 891" transform="translate(-363.995 1469.848)">
      <path id="Path_3358" data-name="Path 3358" d="M-2598.321,6538.484a13.264,13.264,0,0,1-.4,3.505,4.987,4.987,0,0,1-1.815,2.693,7.959,7.959,0,0,1-3.484,1.335,32.558,32.558,0,0,1-5.3.355h-6.57a39.828,39.828,0,0,1-4.978-.262,8.493,8.493,0,0,1-3.62-1.21,5.406,5.406,0,0,1-2.143-2.906,11.875,11.875,0,0,1-.523-2.983h5.125a6.37,6.37,0,0,0,.213,1.271,1.343,1.343,0,0,0,.578.851,3.988,3.988,0,0,0,1.728.4c.97.061,2.187.087,3.62.087h6.428a36.622,36.622,0,0,0,3.838-.153,3.825,3.825,0,0,0,1.635-.43.886.886,0,0,0,.387-.578,8.987,8.987,0,0,0,.169-1.979,6.9,6.9,0,0,0-.153-1.646.431.431,0,0,0-.262-.3,4.869,4.869,0,0,0-1.679-.322c-.954-.07-2.23-.114-3.887-.141l-7.8-.115a31.333,31.333,0,0,1-4.836-.371,7.425,7.425,0,0,1-3.162-1.194,4.373,4.373,0,0,1-1.646-2.442,12.175,12.175,0,0,1-.343-3.119,11.2,11.2,0,0,1,.479-3.429,4.674,4.674,0,0,1,2.006-2.5,9.143,9.143,0,0,1,3.549-1.119,41.307,41.307,0,0,1,5.311-.283h6.008c1.946,0,3.587.06,4.885.186a8.517,8.517,0,0,1,3.528,1,4.814,4.814,0,0,1,2.131,2.693,10.864,10.864,0,0,1,.518,2.966h-5.125a5.043,5.043,0,0,0-.229-1.167.978.978,0,0,0-.523-.626,4.964,4.964,0,0,0-1.761-.279c-.949-.021-2.1-.027-3.429-.027h-5.867c-1.636,0-2.96.033-3.942.1a5.486,5.486,0,0,0-1.854.343.661.661,0,0,0-.393.409,5.678,5.678,0,0,0-.2,1.733,4.731,4.731,0,0,0,.142,1.511.433.433,0,0,0,.245.3,4.106,4.106,0,0,0,1.5.343c.834.087,2.023.141,3.528.158l8.364.115a33.53,33.53,0,0,1,4.9.359,7.088,7.088,0,0,1,3.168,1.211,4.4,4.4,0,0,1,1.6,2.481l.016.071a13.68,13.68,0,0,1,.305,3.107Z" transform="translate(2704.364 -6521.5)" fill="#1a1b1c"></path>
      <path id="Path_3359" data-name="Path 3359" d="M-3585.446,6529.9c-.213.092-.431.185-.654.272l.147-.272Z" transform="translate(3610.984 -6529.443)" fill="#1a1b1c"></path>
      <path id="Path_3360" data-name="Path 3360" d="M-4013.794,6534.031l-10.757,20.025h-5.033l-9.994-18.537-2.922-5.419a45.766,45.766,0,0,0,6.254.786l1.008,1.918,1.625,3.086,1.008,1.919,5.54,10.533,6.205-11.8c.828-.2,1.635-.425,2.426-.676q.94-.294,1.849-.638C-4015.621,6534.871-4014.695,6534.467-4013.794,6534.031Z" transform="translate(4042.5 -6529.631)" fill="#1a1b1c"></path>
      <rect id="Rectangle_6973" data-name="Rectangle 6973" width="5.114" height="23.968" transform="translate(34.73 0.458)" fill="#1a1b1c"></rect>
      <path id="Path_3361" data-name="Path 3361" d="M-1996.039,6529.9v4.656h-10.779v19.306h-5.108v-19.306H-2022.7V6529.9Z" transform="translate(2132.822 -6529.443)" fill="#1a1b1c"></path>
      <path id="Path_3362" data-name="Path 3362" d="M-3183.472,6541.661l17.436,12.2h-8.254l-14.366-9.874h-.234v9.874H-3194V6529.9h5.109v9.426h.224l13.936-9.426h8.282Z" transform="translate(3240.261 -6529.443)" fill="#1a1b1c"></path>
    </g>
    <path id="Path_3363" data-name="Path 3363" d="M-4006.038,6388.171a28.211,28.211,0,0,1-5.932,5,31.426,31.426,0,0,1-5.774,2.852q-.907.343-1.849.637a43.367,43.367,0,0,1-10.413,1.849c-1.107.065-2.181.1-3.206.1h-.5a56.05,56.05,0,0,1-5.964-.371l-2.923-5.419a45.848,45.848,0,0,0,6.253.785,49.3,49.3,0,0,0,6.167.005,37.043,37.043,0,0,0,10.773-2.2,24.452,24.452,0,0,0,9.71-6.509l3.653,3.276Z" transform="translate(3678.6 -4922.5)" fill="#1a1b1c"></path>
  </g>
</svg>
